<?xml version="1.0" encoding="utf-8"?>
<!-- Generator: Adobe Illustrator 24.3.0, SVG Export Plug-In . SVG Version: 6.00 Build 0)  -->
<svg version="1.1" id="Layer_1" xmlns="http://www.w3.org/2000/svg" xmlns:xlink="http://www.w3.org/1999/xlink" x="0px" y="0px"
	 width="215px" height="232px" viewBox="0 0 215 232" style="enable-background:new 0 0 215 232;" xml:space="preserve">
<style type="text/css">
	.st0{clip-path:url(#SVGID_2_);}
	.st1{fill:#FFEEE5;}
	.st2{fill:#610D12;}
	.st3{fill:#FFA694;}
	.st4{fill:#361E14;}
	.st5{fill:#FFFFFF;}
	.st6{fill:#EE737A;}
	.st7{fill:#472C21;}
	.st8{fill:#E97E69;}
	.st9{fill:#54372B;}
	.st10{fill:#ED651E;}
</style>
<g>
	<defs>
		<rect id="SVGID_1_" y="0" width="215" height="232"/>
	</defs>
	<clipPath id="SVGID_2_">
		<use xlink:href="#SVGID_1_"  style="overflow:visible;"/>
	</clipPath>
	<g class="st0">
		<path class="st1" d="M69.9,183.9c-4.3-2.5-4.5-8.4-4.5-30.8c0-16,4.4-24.7,4.4-24.7l14.5,10.3c0,0,0.1-0.3,0.1-0.9
			c0.9-6.2,11.6-43.1,14.2-52.5c1.9-6.7,9.8-13.1,19.8-10.7c16.5,4,16.9,66.5-8.6,101.6c-2.8,3.8-10.3,6.9-12.4,7.8
			c-0.3,0.1-0.6,0.3-0.8,0.4c-10.1,4.4-19.1,2.5-24.2,0.7C71.4,184.6,70.5,184.2,69.9,183.9L69.9,183.9z"/>
		<path class="st2" d="M70,183.9c0,0-9.8-7.7-9.6-32.4c0.1-14.2,8.2-23.1,8.2-23.1l0,0c0.2,0.5,5.7,11.9,5.4,30.6
			c0,2.4,0.1,6.1-0.4,10C72.9,175,72.7,178.8,70,183.9L70,183.9z"/>
		<path class="st3" d="M34.6,112.7l11.2-4.5c3,5.3,4.2,5.9,5.6,6.9c0.2,0.2,0.5,0.3,0.7,0.5c0.2,0.1,0.3,0.2,0.5,0.3l0,0
			c0.1,0.1,0.2,0.2,0.3,0.2c0.4,0.3,0.8,0.5,1.1,0.8c4.9,3.4,15.6,11.3,15.6,11.3l0,0c0.2,0.4,1.8,5.8,3.3,16c1,6.8,1,11.3,0.9,13.6
			c-0.5-0.3-9.5-6.8-9.5-6.8s-5.5-4.3-6.5-5.1c-2.7-2.3-8.3-8-13.4-13.4c-0.1-0.1-0.3-0.3-0.4-0.4c-0.6-0.6-1.2-1.2-1.7-1.8
			c-0.4-0.4-0.8-0.9-1.2-1.3c-1.1-1.1-2-2.2-2.9-3.1c-0.4-0.5-0.9-0.9-1.3-1.3c-1.8-2-9.4-10.7-9.4-10.7
			C27.7,113.9,34.6,112.7,34.6,112.7z"/>
		<path class="st3" d="M10.5,81.3c-1.2-1.1-1.5-2.7,0.5-3c1.2-0.2,2.5,0.5,3.5,1c2.3,1.1,21.6,12.8,25.5,13.3c0.2,0,0.4,0,0.5,0
			c0,0,0,0,0.1,0c0.8-0.4,1.1-3.1,1.2-3.8c0.4-2.1,0.8-4.3,1.5-6.4c0.4-1.4,0.9-3.5,2.3-4.2c1.2-0.7,2.3,0.2,2.1,1.5
			c-1.2,6.9,0.5,13.8,0.1,20.7c-0.2,2.8-0.1,4.2-1,6.8c-0.2,2.6,1.1,4.2,1.9,5.8l-17.9,2.9l-1.8-0.5c0,0-5.8-6.3-8.8-10.8
			c-0.2-0.3-0.4-0.6-0.6-0.9c-0.8-1.3-1.3-2.3-1.3-2.8c0-0.8,0.4-1.5,1.1-2c0,0,0,0,0,0c0.2-0.1,0.2-0.1,0.2-0.1s-0.2-0.2-0.5-0.6
			c0,0,0,0,0-0.1c0,0-0.1-0.1-0.1-0.1c-0.4-0.6-0.7-1.4-0.4-2.2c0.5-1.3,1.5-1.7,2.1-1.8c0,0,0,0,0,0l0,0l0,0c0.2,0,0.4,0,0.4,0
			s-0.1-0.2-0.2-0.4c0-0.1,0-0.1-0.1-0.2c0,0,0,0,0,0c-0.2-0.5-0.3-1.2,0.1-1.9c0.7-1,1.6-1.2,2.4-1.1c0,0,0.1,0,0.1,0
			c0.5,0.1,0.9,0.2,1,0.3c-0.2-0.1-0.9-0.6-1.9-1.2c0,0,0,0,0,0c-0.3-0.2-0.6-0.4-0.9-0.6c0,0,0,0,0,0
			C17.8,86.5,11.7,82.4,10.5,81.3L10.5,81.3z"/>
		<path class="st4" d="M38,98l0.3-0.5c1.1-1.5,1.5-3.2,1.7-4.9c0.2,0,0.4,0,0.5,0c0,0,0,0,0.1,0c-0.3,1.8-0.7,3.6-1.8,5.3l-0.3,0.5
			c-1.2,1.7-2.3,3.1-2.5,5.2c-0.3,2.1,0.1,4.3,1.1,6c0,0,0,0,0,0c0.1,0.1,0,0.3-0.1,0.4c-0.1,0-0.1,0-0.2,0c-0.1,0-0.1-0.1-0.2-0.1
			c-1.1-1.8-1.5-4.1-1.2-6.3C35.6,101.2,36.8,99.7,38,98z M20.9,93.5C20.9,93.5,20.9,93.5,20.9,93.5c3.6,2.4,7.7,4.8,9.1,4.5
			c0.4-0.1,0.6-0.2,0.7-0.5c0.2-0.5-0.2-1.5-0.7-2.2c-1.6-2.1-4.1-3.6-6.5-4.8c0.5,0.1,0.1-0.3-0.8-0.9c2.7,1.4,5.9,2.9,7.8,5.4
			c0.2,0.3,1.2,1.7,0.8,2.7c-0.1,0.3-0.4,0.7-1.1,0.8c-0.3,0.1-0.6,0-1-0.1c-0.5-0.1-1.1-0.3-1.8-0.6c-1.9-0.8-4.3-2.3-6.5-3.7
			c0.2,0,0.4,0,0.4,0s-0.1-0.2-0.2-0.4C20.9,93.6,20.9,93.6,20.9,93.5z"/>
		<path class="st4" d="M19.1,98c4,2.5,8.3,4.9,9.7,4.6c0.4-0.1,0.7-0.3,0.8-0.5c0.2-0.7-0.5-1.8-1-2.4c-1.4-1.5-3.3-2.7-4.9-3.7
			c-1-0.6-1.9-1.2-2.8-1.9c0,0,0,0,0,0l0,0l0,0c0.2,0,0.4,0,0.4,0s-0.1-0.2-0.2-0.4c0-0.1,0-0.1-0.1-0.2c1,0.7,2.2,1.5,3,2
			c1.1,0.7,2.3,1.4,3.4,2.3c0.6,0.5,1.1,1,1.6,1.5c0.5,0.6,1.5,2,1.1,3c-0.1,0.3-0.4,0.7-1.2,0.9c-0.3,0.1-0.6,0-1-0.1
			c-1.1-0.2-2.7-1-4.5-1.9c-1.4-0.7-2.7-1.5-4-2.3c0.2-0.1,0.2-0.1,0.2-0.1c-0.2-0.2-0.3-0.4-0.5-0.6c0,0,0,0,0-0.1
			C19.1,98.1,19.1,98.1,19.1,98L19.1,98z"/>
		<path class="st4" d="M19.2,98.2C19.2,98.2,19.2,98.2,19.2,98.2c1.4,0.8,2.9,1.8,4.2,3c0.2,0.2,0.4,0.4,0.6,0.6
			c0.5,0.6,1.5,2,1.1,3c-0.1,0.3-0.4,0.7-1.2,0.9c-0.3,0.1-0.6,0-1-0.1c-0.8-0.2-1.8-0.6-2.9-1.1c-0.2-0.3-0.4-0.6-0.6-0.9
			c2,1,3.6,1.7,4.4,1.5c0.4-0.1,0.7-0.3,0.8-0.5c0.2-0.7-0.5-1.8-1-2.4c-1.2-1.3-2.8-2.4-4.3-3.3c0,0,0,0,0,0
			c0.2-0.1,0.2-0.1,0.2-0.1S19.4,98.5,19.2,98.2L19.2,98.2z M83.4,136l15.1,9.3l-0.4,0.6l-14.8-9.1C83.3,136.9,83.3,136.6,83.4,136z
			"/>
		<path class="st5" d="M51.5,118.5c0.3-1,0.5-1.9,0.7-2.9l0.4,0.3c-1.4,6.2-4,12.1-7.4,17.5c-0.1-0.1-0.2-0.2-0.4-0.4
			C47.8,128.5,50,123.6,51.5,118.5z"/>
		<path class="st1" d="M88,176.4c-9.5,39.6-17.2,81.5-17.2,81.5s3.6,0.6,14.8,1.3c11.2,0.8,18.4,0,18.4,0l6.7-46.9
			c0,0,10.1-64.2,10.6-66.1c0.5-1.9-8.6-34.4-8.6-34.4S97.4,136.8,88,176.4z"/>
		<path class="st2" d="M124,113.5l4.9,15.3c0,0,4.4,67.8,3.9,69.3c-0.5,1.5-28.1,27-28.1,27L124,113.5L124,113.5z"/>
		<path class="st6" d="M107.5,201c3.5-15,10.8-27.1,15.8-34c0.1-0.2,0.3-0.4,0.5-0.6c2.8-3.8,4.8-5.9,4.8-5.9h41.3
			c0,0,25.9,23.6,30.8,45.3c4.9,21.7,14.4,96.2,14.4,96.2H105.2C105.2,301.9,100.4,231.5,107.5,201z"/>
		<path class="st4" d="M123.1,167.5c6.9,2.6,14.4,3.9,21.6,4.9c12,1.6,9.9,0.7,22,0.8c0.5,0,0.5,0.8,0,0.8
			c-12.1-0.1-10.1,0.8-22.2-0.8c-7.3-1-14.9-2.4-21.9-5C122.8,167.9,122.9,167.7,123.1,167.5z M147.9,224l14.1,77.9h-13.3L147.9,224
			L147.9,224z"/>
		<path class="st7" d="M134.5,3.4c1.6-2,4-3.3,6.5-3.5c0.2,0,0.5,0,0.7,0c0.1,0,0.1,0,0.2,0c5,0.1,9.1,4.2,9.1,9.2
			c0,2-0.7,4-1.9,5.6c-0.2,0.2-0.4,0.5-0.6,0.7c0,0,0,0,0,0c-1.7,1.8-4.2,2.9-6.7,2.9c-1.6,0-3.1-0.4-4.4-1.1c0,0-0.1,0-0.1-0.1
			c-0.3-0.1-0.5-0.3-0.7-0.5c-2.5-1.7-4-4.6-4-7.6C132.5,7.1,133.2,5,134.5,3.4z"/>
		<path class="st7" d="M130.2,30.1c0.3-6.4,2.9-10.4,6.5-12.6c0,0,0,0,0,0c0.1-0.1,0.3-0.2,0.4-0.2c2.8-1.5,6.1-2.1,9.5-1.9
			c0.6,0,1.2,0.1,1.7,0.2c0.1,0,0.1,0,0.2,0c1.5,0.2,2.9,0.7,4.2,1.4c0.3,0.2,0.6,0.3,0.9,0.5c5.6,3.5,8.2,10.6,7.9,16.8
			c-0.4,8.4-8.6,10.6-16.9,10.1c-4.5-0.2-8.2,0-11.1-3c-0.9-0.9-1.6-2-2.1-3.3c-0.5-1.1-0.8-2.4-1-3.7
			C130.2,33,130.2,31.5,130.2,30.1z"/>
		<path class="st3" d="M140.1,49.5l12.2,2.7l4.1,0.9l3.1,24.2l-15.6,2L140.1,49.5L140.1,49.5z"/>
		<path class="st8" d="M152.3,52.2l4.1,0.9l0.9,7.4c-2.9,0.9-7.1,1.8-9.8,0.5c-4.4-2.1-6.1-5.7-6.1-5.7
			C145,54.2,148.7,53.2,152.3,52.2z"/>
		<path class="st3" d="M147.3,19.8C147.3,19.8,147.3,19.8,147.3,19.8c-2.4-0.2-4.6,0.6-6.7,1.5c-2.9,1.2-5.8,2.8-7.3,5.6
			c-1.2,2.2-1.3,4.7-1.3,7.2c0.1,7.7,1.7,14,6.5,19.9c3.8,4.6,10.5,6.8,15.5,2.7c2.6-2.1,4.6-4.9,5.5-8.2c0.9-3.3,1.5-5.8,1.4-9.2
			c0-2.6-0.2-5.2-0.8-7.7c-0.8-3.2-2.2-5.8-4.8-7.8C153,21.8,150.3,20,147.3,19.8L147.3,19.8z"/>
		<path class="st7" d="M131.1,28.4c1.1-2.3,0.2-2.5,1.8-4.2c1.6-1.7,2.8-2.5,5.2-3.6c2.5-1,6.9-2.6,6.9-2.6l6.1,0.9l2,1.2l0.7,0.5
			l2.1,1.3c0,0,3.6,3.2,4.2,4.7c0.6,1.6,2.1,8.8,0.7,8.3c-1.2-0.4-2-2.3-2.6-3.3c-1.4-2.4-2.6-5.2-5.2-6.8c0,0,0,0,0,0
			c-0.2-0.1-0.4-0.2-0.7-0.4c-2.5-1.2-5.7-1.6-8.3-1.1c-3.8,0.8-7.9,2.4-9.4,6.1c-0.9,2.1-1.1,5-1.2,7.2c0,0.3,0,0.7-0.2,1
			c-0.2,0.4-0.8,0.8-1.3,0.6c-0.2-0.1-0.4-0.2-0.5-0.4c-1.1-1.3-0.9-3.3-1-4.9C130.4,31.6,130.4,29.8,131.1,28.4z"/>
		<path class="st4" d="M152.2,36.1c0.7,0,1.3,0.9,1.4,2.1c0,1.2-0.5,2.2-1.2,2.2c-0.7,0-1.3-0.9-1.4-2.1
			C151,37.1,151.5,36.1,152.2,36.1z M141.1,36.8c0.7-0.1,1.4,0.8,1.6,1.9c0.2,1.2-0.2,2.2-0.9,2.3c-0.7,0.1-1.4-0.8-1.6-1.9
			C140,38,140.4,36.9,141.1,36.8z M146.5,39.5c-0.4,1.1-1,2.6-0.9,3.8c0.1,0.9,0.8,1.4,1.5,1.9c0.4,0.3,0.8-0.4,0.4-0.7
			c-0.4-0.2-0.9-0.5-1-1c-0.2-0.5,0-1.1,0.2-1.5c0.2-0.8,0.4-1.5,0.7-2.3C147.4,39.2,146.6,39.1,146.5,39.5L146.5,39.5z"/>
		<path class="st9" d="M148.9,32.9c0,0.4,0.2,0.8,0.5,1c0.2,0.1,0.5,0.1,0.7,0.1c1.4,0,2.9-0.2,4.3-0.5c0.2,0,0.3-0.1,0.4-0.2
			c0.1-0.2,0.2-0.4,0.1-0.6c-0.1-0.2-0.2-0.4-0.4-0.5c-0.5-0.5-1.4-0.9-2.3-1.1C150.7,30.8,149,31.1,148.9,32.9z M139,32.9
			c-0.9,0.4-1.6,1.1-2,1.6c-0.1,0.2-0.2,0.4-0.2,0.6c0,0.2,0.1,0.5,0.3,0.6c0.1,0.1,0.3,0.1,0.5,0.1c1.4-0.1,2.9-0.2,4.3-0.6
			c0.2-0.1,0.5-0.1,0.7-0.3c0.3-0.3,0.3-0.7,0.2-1.1C142.1,32,140.4,32.2,139,32.9z"/>
		<path class="st3" d="M160.8,44c4-1.4,5.5-9.5,1.6-10.7c-2.8-0.8-4,2.4-4,2.4S156.8,45.5,160.8,44z"/>
		<path class="st4" d="M160.2,37.4c0.8,1.1,0.8,2.5,0.2,3.7c-0.2,0.4,0.5,0.8,0.7,0.3c0.7-1.4,0.6-3.2-0.3-4.5
			C160.5,36.6,159.9,37,160.2,37.4z"/>
		<path class="st3" d="M134.9,47.4c-4.2-0.3-7.9-7.7-4.4-9.9c2.5-1.6,4.5,1.2,4.5,1.2C135,38.7,139.1,47.7,134.9,47.4z"/>
		<path class="st4" d="M133.7,40.9c-0.4,1.3-0.1,2.6,0.8,3.7c0.3,0.4-0.2,0.9-0.6,0.5c-1.1-1.2-1.5-2.8-1-4.4
			C133.1,40.2,133.8,40.4,133.7,40.9z"/>
		<path class="st5" d="M148.2,50.3c3-0.4,3.6-3.7,3.6-3.7s-2.2,0.6-4,0.8c-1.8,0.2-4.1,0.2-4.1,0.2
			C143.7,47.6,144.7,50.8,148.2,50.3z"/>
		<path class="st4" d="M135,2.8c0.3,0.2,0.5,0.5,0.8,0.7c3.1,3,6.2,7.3,6.1,11.8c0.8-0.1,1.5-0.2,2.3-0.3c0,0,0-0.1,0-0.1
			c2.2-4.2,0.3-9.9-2.1-13.6c-0.3-0.5-0.6-0.9-1-1.4c0.2,0,0.5,0,0.7,0c0.1,0,0.1,0,0.2,0c0.4,0.5,0.7,1,1,1.5c2.3,3.8,4,9.3,2,13.6
			c1.4-0.1,2.8-0.2,4.2-0.1c-0.2,0.2-0.4,0.5-0.6,0.7c0.1,0,0.1,0,0.2,0c-0.1,0-0.1,0-0.2,0c-3.7,0-7.6,0.6-11.2,1.7
			c-0.2,0.1-0.3,0.1-0.5,0.2c0.1-0.1,0.3-0.2,0.4-0.2c-0.3-0.1-0.5-0.3-0.7-0.5c1.5-0.5,3.1-0.9,4.6-1.3c0,0,0-0.1,0-0.1
			c0.1-4.4-3.2-8.8-6.3-11.7c-0.1-0.1-0.2-0.2-0.3-0.3C134.7,3.2,134.8,3,135,2.8z"/>
		<path class="st3" d="M130,68c0,0,1.3-1.3,4.4-1.3c0.2,0,0.5,0,0.8,0c3.2,0,7.9-0.7,13.7,0c5,0.6,9.9,1.5,14.7,2.7
			c0.3,0.1,0.5,0.1,0.7,0.2c5.1,1.3,8.2,2.4,8.2,2.4l13.5,30.6l-15.6,19.1c0,0-36.6,7.8-43.9,8.1c-7.3,0.2-11.7-11.6-14.5-24.7
			C109.2,91.9,130,68,130,68z"/>
		<path class="st5" d="M161.8,68.3l21.2,7.1l-12,85.3c0,0-3.9,3.4-19.4,3.4c-15.5,0-23.1-3.4-23.1-3.4s-13.1-81.8-9.1-88.2
			c4-6.4,18.5-5.9,18.5-5.9s-3.4,7.2,6.9,8.8C156.8,77.3,161.8,68.3,161.8,68.3L161.8,68.3z"/>
		<path class="st1" d="M166.9,133.8c4-35.5,3.2-62.1,3.2-62.1s13.7,5.4,14.9,6.8c1.2,1.4,9.6,67.6,10.4,70.1
			c0.1,0.5,1.2,4.2,2.8,10.1c0.1,0.4,0.2,0.9,0.3,1.3c7.3,26.8,17,97.2,17,97.2s-0.7-0.3-11.8,5c-11.1,5.3-23.9,4-23.9,4
			s-5.1-29-9-61c0-0.3-0.1-0.5-0.1-0.8C167.5,178.1,165.1,149.7,166.9,133.8z M103,79.5c-1.7,6.4-24.6,140.8-24.6,140.8
			s22.7,33.2,27.6-10.3c4.1-36,29.5-144.3,29.5-144.3S104.7,73.1,103,79.5z"/>
		<path class="st5" d="M143.6,87.9c-7.9-1.3-8.5-15.4-8.6-16l0.8,0c0,0.1,0.6,14.1,7.9,15.2c7.4,1.2,14.4-8.9,14.5-9l0.6,0.4
			C158.6,79,152.3,88,145,88C144.5,88,144.1,88,143.6,87.9z"/>
		<path class="st10" d="M158.1,51.6c0-2.9,0.4-9.1,1.7-9.1c0.2,0,0.3,0.1,0.4,0.3c0.1,0.2,0,0.4-0.2,0.5c-0.4,0.5-1,3.9-1,8.4
			c0,5.2,1.2,8.4,2,8.4c0.9,0,2-3.2,2-8.4c0-5.1-1.6-8.3-2-8.4c-0.2,0-0.4-0.2-0.4-0.4c0-0.2,0.2-0.4,0.4-0.4c1.4,0,2.8,4.6,2.8,9.1
			c0,4.5-1,9.1-2.8,9.1C159.1,60.7,158.1,56.1,158.1,51.6z M133.7,64.1c-1.8,0-2.8-4.6-2.8-9.1c0-4.5,1.4-9.1,2.8-9.1l0,0
			c0.2,0,0.4,0.2,0.4,0.4c0,0.2-0.2,0.4-0.4,0.4c-0.5,0.1-2,3.3-2,8.4c0,5.2,1.2,8.4,2,8.4c0.9,0,2-3.2,2-8.4c0-4.5-0.7-7.9-1-8.4
			c-0.2-0.1-0.3-0.2-0.3-0.4c0-0.2,0.2-0.4,0.4-0.4c1.2,0,1.7,6.3,1.7,9.1C136.5,59.6,135.5,64.1,133.7,64.1z"/>
		<path class="st3" d="M160.3,43.7l0.1-1.2c0,0-0.4-0.4-0.5-0.4c-0.2-0.1-1,0.6-1,0.6s-0.1,0.6,0.1,1.1c0.2,0.4,0.6,0.4,0.6,0.4
			L160.3,43.7z"/>
		<path class="st3" d="M160.1,43.1l-2.2-0.5l-2.4,1.2l-0.3,4l1.7,4c0,0,1,0.4,1.2-0.1c0.2-0.4,0.8-1.6,0.8-1.6
			C158.9,50.2,160.1,43.1,160.1,43.1z M136.9,47.7l-0.7-1.4c0,0-1.1-0.8-1.4-0.9c-0.2-0.1-0.6,0.7-0.6,0.7l0.1,0.7l0.4,0.9l0.6,1.7
			l0.9,1.7C136.3,50.9,136.9,47.7,136.9,47.7z"/>
		<path class="st4" d="M152.3,24.6c0.4-1.5,0.7-3,0.8-4.4c0.1-1.1,0-2.1-0.2-3.2c0.3,0.2,0.6,0.3,0.9,0.5c0.1,1,0.2,2.1,0.1,3.1
			c-0.1,1.4-0.4,2.9-0.8,4.3C152.8,24.8,152.6,24.7,152.3,24.6L152.3,24.6z M85.2,179.2c4.8-24.4,2.2-14.2,6.1-38.3
			c0.9-5.7,1.8-11.4,2.7-17.1c1.3-7.9,2.6-14.9,4-21.6l0.7,0.2c-1.4,6.7-2.7,13.7-4,21.6c-0.9,5.7-1.8,11.4-2.7,17.1
			c-3.9,24.2-1.1,13.4-5.9,37.9C85.7,179,85.4,179.1,85.2,179.2L85.2,179.2z"/>
		<path class="st1" d="M164.9,143.9l-2.2-75.1c0,0,15.9,0.8,24.7,9.2c10.3,9.9,10.2,22.3,5.2,38
			C187.4,132.2,164.9,143.9,164.9,143.9z"/>
		<path class="st1" d="M170.3,193.9c-10.8-16.3-10.1-54.7-10.1-54.7l0,0l17.6,8.1l0.1,0.1l-0.1-1L166.1,103c0,0,1.2-15.3,14.2-18.8
			c13.8-3.7,21.1,12.2,24.8,28.3c6.7,29.6,9.2,42.3,4.8,56.6c-4.2,13.7-17.9,30.9-37,25.4C171.5,194.1,171,194.4,170.3,193.9
			L170.3,193.9z"/>
		<path class="st2" d="M170.4,193.9c0,0-9.2-8.5-11.2-27.1c-1.5-13.7,1-27.6,1-27.6s0.1,0,0.2,0.1c1.1,0.9,6.8,6.1,10.8,21.1
			c1.1,3.9,1.9,13.5,2,17C173.3,183.6,172.2,189.2,170.4,193.9L170.4,193.9z"/>
		<path class="st3" d="M120.3,126.1l12.5-3.5c1.5,0.8,2.9,1.7,4.4,2.5c0.4,0.2,0.8,0.5,1.2,0.7c0.1,0.1,0.2,0.1,0.4,0.2
			c0.4,0.2,0.8,0.5,1.2,0.7c5.2,3,10.3,6.1,15.4,9.2c4.2,2.6,6.4,4,6.4,4s0,0,0.1,0.1c0.8,0.9,5.1,4,9,18.6c1,3.8,1.3,6.5,1.6,9.9
			c-3.4-0.6-21.3-11.3-24.6-13.7s-12.4-7.8-18.5-13.3c-0.4-0.4-0.9-0.8-1.3-1.2c-1.2-1-2.2-2-3.2-2.9c-0.5-0.4-0.9-0.8-1.4-1.2
			c-2-1.8-6.3-5.9-6.3-5.9L120.3,126.1z"/>
		<path class="st3" d="M92,104.3c-1.4-0.8-2.1-2.3-0.2-3.1c1.2-0.5,2.6-0.1,3.7,0.1c2.7,0.6,26.7,8,28.8,6.6
			c0.8-0.5,0.3-3.3,0.3-4.1c-0.1-2.2-0.2-4.4-0.1-6.6c0.1-1.4,0-3.6,1.2-4.7c1.1-1,2.3-0.4,2.4,0.9c0.5,7,3.9,13.4,5.2,20.2
			c0.5,2.8,0.5,5.5,0.1,8.3c-0.1,0.5-0.2,4.2-0.7,4.5l-10.3,6.3l-0.4,2c0,0-9.2-5.4-13.2-8.8c-0.2-0.2-0.4-0.3-0.6-0.5
			c-2-1.7-3.5-3.3-3.7-4c-0.2-0.8,0-1.6,0.6-2.2c0,0,0,0,0,0c0.1-0.1,0.2-0.2,0.2-0.2s-0.3-0.2-0.6-0.4c-0.1-0.1-0.1-0.1-0.2-0.2
			c-0.5-0.5-1-1.2-0.9-2c0.1-1.4,1.1-2,1.6-2.2l0.1,0c0.2-0.1,0.4-0.1,0.4-0.1s-0.1-0.1-0.3-0.3c0,0,0-0.1-0.1-0.1
			c-0.3-0.4-0.7-1.1-0.4-2c0.4-1.2,1.3-1.6,2-1.7c0,0,0,0,0.1,0c0.4-0.1,0.8,0,1.1,0c-0.2-0.1-1-0.3-2.1-0.7c0,0,0,0,0,0
			c-0.6-0.2-1.3-0.4-2-0.7C99.6,107.3,93.3,105.1,92,104.3L92,104.3z"/>
		<path class="st5" d="M109.3,120.8c0.2-0.3,0.6-0.1,0.5,0.3c-0.8,1.5-1.1,3.3-1,5c-0.2-0.2-0.4-0.3-0.6-0.5
			C108.2,123.9,108.5,122.4,109.3,120.8z"/>
		<path class="st4" d="M114.6,111.7C114.6,111.7,114.6,111.7,114.6,111.7c0.1,0,0.2,0.2,0.2,0.3c0,0.1-0.1,0.2-0.3,0.2
			c0,0-0.1,0-0.1,0l-7.6-2.1c0.6-0.1,0.2-0.3-1-0.7c0,0,0,0,0,0C105.3,109.2,114.6,111.7,114.6,111.7z M105.3,114.3
			c0.2-0.1,0.4-0.1,0.4-0.1s-0.1-0.1-0.3-0.3l-0.1-0.1l7.9,2.2c0,0,0,0,0,0c0.1,0,0.2,0.2,0.2,0.3c0,0.1-0.1,0.2-0.3,0.2
			c0,0-0.1,0-0.1,0L105.3,114.3C105.2,114.3,105.2,114.3,105.3,114.3z M104.5,118.6l7.2,2.9c0.1,0.1,0.2,0.2,0.2,0.4
			c0,0.1-0.1,0.2-0.2,0.2c0,0-0.1,0-0.1,0l-6.4-2.6c0.1-0.1,0.2-0.2,0.2-0.2s-0.3-0.2-0.6-0.4C104.6,118.7,104.6,118.6,104.5,118.6z
			 M208.6,170.9c2.2-8,5.2-15.8,1.2-36.8c0.2,0.4,0.4,0.8,0.7,1.2c4.4,17.8,1,28.1-1.1,35.8c-2.2,8-7.4,15.1-14.8,20.2
			c-0.1-0.2-0.2-0.5-0.3-0.7C201.4,185.5,206.5,178.7,208.6,170.9z M177.8,147.3l-0.2-1l20.5,12.9c0.2,0.1,0.2,0.3,0.1,0.5
			c-0.1,0.1-0.1,0.1-0.2,0.2c-0.1,0-0.2,0-0.3,0l-20.1-12.6C177.7,147.3,177.8,147.3,177.8,147.3z"/>
		<path class="st4" d="M197.5,152.6c0,0-0.1,0-0.1,0l-11.6-0.4c-0.2,0-0.4-0.2-0.4-0.4c0-0.2,0.2-0.4,0.4-0.4l11.6,0.4
			c0.2,0,0.4,0.2,0.4,0.4C197.7,152.4,197.6,152.5,197.5,152.6L197.5,152.6z"/>
	</g>
</g>
</svg>
